0
SECTION
2
HEADER
9
$ACADVER
1
AC1014
9
$INSUNITS
70
6
9
$MEASUREMENT
70
1
0
ENDSEC
0
SECTION
2
ENTITIES

; ==================== ВНЕШНИЕ СТЕНЫ ====================
0
LINE
8
WALLS
10
100.0
20
100.0
30
0.0
11
1500.0
21
100.0
31
0.0
0
LINE
8
WALLS
10
1500.0
20
100.0
30
0.0
11
1500.0
21
1100.0
31
0.0
0
LINE
8
WALLS
10
1500.0
20
1100.0
30
0.0
11
100.0
21
1100.0
31
0.0
0
LINE
8
WALLS
10
100.0
20
1100.0
30
0.0
11
100.0
21
100.0
31
0.0
0

; ==================== КОЛОННЫ ====================
0
CIRCLE
8
COLUMNS
10
500.0
20
500.0
30
0.0
40
15.0
0
CIRCLE
8
COLUMNS
10
1000.0
20
500.0
30
0.0
40
15.0
0
CIRCLE
8
COLUMNS
10
500.0
20
800.0
30
0.0
40
15.0
0
CIRCLE
8
COLUMNS
10
1000.0
20
800.0
30
0.0
40
15.0
0

; ==================== СТОЛЫ ====================
; T-01: Круглый стол d=0.8м (радиус 32 в пикселях = 0.64м)
0
CIRCLE
8
TABLES
10
300.0
20
450.0
30
0.0
40
32.0
62
10
0
TEXT
8
TABLES
10
300.0
20
470.0
30
0.0
40
4.0
1
T-01
0

; T-02: Круглый стол d=1.2м
0
CIRCLE
8
TABLES
10
420.0
20
450.0
30
0.0
40
48.0
62
10
0
TEXT
8
TABLES
10
420.0
20
470.0
30
0.0
40
4.0
1
T-02
0

; T-03: Прямоугольный стол 1.2×0.8м
0
LWPOLYLINE
8
TABLES
90
4
70
1
10
-48.0
20
-32.0
10
48.0
20
-32.0
10
48.0
20
32.0
10
-48.0
20
32.0
0
TEXT
8
TABLES
10
540.0
20
470.0
30
0.0
40
4.0
1
T-03
0

; T-04
0
CIRCLE
8
TABLES
10
300.0
20
550.0
30
0.0
40
32.0
62
10
0
TEXT
8
TABLES
10
300.0
20
570.0
30
0.0
40
4.0
1
T-04
0

; T-05
0
LWPOLYLINE
8
TABLES
90
4
70
1
10
-48.0
20
-32.0
10
48.0
20
-32.0
10
48.0
20
32.0
10
-48.0
20
32.0
0
TEXT
8
TABLES
10
420.0
20
570.0
30
0.0
40
4.0
1
T-05
0

; T-06: Большой прямоугольный 1.6×0.9м
0
LWPOLYLINE
8
TABLES
90
4
70
1
10
-64.0
20
-36.0
10
64.0
20
-36.0
10
64.0
20
36.0
10
-64.0
20
36.0
0
TEXT
8
TABLES
10
750.0
20
470.0
30
0.0
40
4.0
1
T-06
0

; T-07
0
CIRCLE
8
TABLES
10
880.0
20
450.0
30
0.0
40
48.0
62
10
0
TEXT
8
TABLES
10
880.0
20
470.0
30
0.0
40
4.0
1
T-07
0

; T-08
0
LWPOLYLINE
8
TABLES
90
4
70
1
10
-48.0
20
-32.0
10
48.0
20
-32.0
10
48.0
20
32.0
10
-48.0
20
32.0
0
TEXT
8
TABLES
10
750.0
20
570.0
30
0.0
40
4.0
1
T-08
0

; T-09
0
CIRCLE
8
TABLES
10
880.0
20
550.0
30
0.0
40
48.0
62
10
0
TEXT
8
TABLES
10
880.0
20
570.0
30
0.0
40
4.0
1
T-09
0

; T-10: VIP круглый d=1.5м
0
CIRCLE
8
TABLES_VIP
10
1150.0
20
450.0
30
0.0
40
60.0
62
30
0
TEXT
8
TABLES_VIP
10
1150.0
20
470.0
30
0.0
40
4.0
1
T-10 VIP
0

; T-13: У окна
0
LWPOLYLINE
8
TABLES
90
4
70
1
10
-64.0
20
-36.0
10
64.0
20
-36.0
10
64.0
20
36.0
10
-64.0
20
36.0
0
TEXT
8
TABLES
10
200.0
20
720.0
30
0.0
40
4.0
1
T-13
0

; T-14
0
CIRCLE
8
TABLES
10
350.0
20
700.0
30
0.0
40
48.0
62
10
0
TEXT
8
TABLES
10
350.0
20
720.0
30
0.0
40
4.0
1
T-14
0

; ==================== ДИВАНЫ ====================
0
LWPOLYLINE
8
SOFAS
90
4
70
1
10
0.0
20
-30.0
10
140.0
20
-30.0
10
140.0
20
30.0
10
0.0
20
30.0
0
TEXT
8
SOFAS
10
70.0
20
370.0
30
0.0
40
4.0
1
D-01
0

0
LWPOLYLINE
8
SOFAS
90
4
70
1
10
-30.0
20
-100.0
10
30.0
20
-100.0
10
30.0
20
100.0
10
-30.0
20
100.0
0
TEXT
8
SOFAS
10
420.0
20
500.0
30
0.0
40
4.0
1
D-02
0

; ==================== БАР ====================
0
LWPOLYLINE
8
BAR
90
6
70
1
10
-150.0
20
-40.0
10
150.0
20
-40.0
10
150.0
20
40.0
10
100.0
20
40.0
10
100.0
20
140.0
10
-150.0
20
140.0
10
-150.0
20
-40.0
0
TEXT
8
BAR
10
950.0
20
1020.0
30
0.0
40
10.0
1
БАР
0

; ==================== СЦЕНА ====================
0
LWPOLYLINE
8
STAGE
90
4
70
1
10
-180.0
20
-60.0
10
180.0
20
-60.0
10
180.0
20
60.0
10
-180.0
20
60.0
0
TEXT
8
STAGE
10
300.0
20
200.0
30
0.0
40
8.0
1
СЦЕНА
62
6
0

; ==================== КУХНЯ ====================
0
RECTANGLE
8
KITCHEN
10
670.0
20
150.0
40
160.0
41
100.0
0
TEXT
8
KITCHEN
10
750.0
20
280.0
30
0.0
40
6.0
1
КУХНЯ
62
1
0

; ==================== САНУЗЛЫ ====================
0
RECTANGLE
8
WC
10
1050.0
20
75.0
40
100.0
41
50.0
62
1
0
TEXT
8
WC
10
1100.0
20
100.0
30
0.0
40
6.0
1
М
62
1
0

0
RECTANGLE
8
WC
10
1200.0
20
75.0
40
100.0
41
50.0
62
6
0
TEXT
8
WC
10
1250.0
20
100.0
30
0.0
40
6.0
1
Ж
62
6
0

; ==================== ГАРДЕРОБ ====================
0
RECTANGLE
8
CLOAKROOM
10
1330.0
20
140.0
40
140.0
41
120.0
62
4
0
TEXT
8
CLOAKROOM
10
1400.0
20
200.0
30
0.0
40
6.0
1
ГАРДЕРОБ
62
4
0

; ==================== ТАНЦПОЛ ====================
0
LWPOLYLINE
8
DANCEFLOOR
90
4
70
1
10
-120.0
20
-120.0
10
120.0
20
-120.0
10
120.0
20
120.0
10
-120.0
20
120.0
0
TEXT
8
DANCEFLOOR
10
750.0
20
660.0
30
0.0
40
8.0
1
ТАНЦПОЛ
62
5
0

; ==================== ВХОДЫ ====================
0
LINE
8
ENTRANCES
10
1240.0
20
1100.0
30
0.0
11
1360.0
21
1100.0
31
0.0
62
10
0
TEXT
8
ENTRANCES
10
1300.0
20
1120.0
30
0.0
40
6.0
1
ВХОД
62
10
0

; ==================== ПУТИ ЭВАКУАЦИИ ====================
0
LINE
8
EVACUATION
10
1300.0
20
1000.0
30
0.0
11
100.0
21
900.0
31
0.0
62
3
0

0
LINE
8
EVACUATION
10
100.0
20
600.0
30
0.0
11
100.0
21
1100.0
31
0.0
62
3
0

; ==================== ОГНЕТУШИТЕЛИ ====================
0
CIRCLE
8
FIRE_SAFETY
10
680.0
20
320.0
30
0.0
40
12.0
62
1
0
TEXT
8
FIRE_SAFETY
10
680.0
20
345.0
30
0.0
40
4.0
1
ОТ
62
1
0

0
CIRCLE
8
FIRE_SAFETY
10
1300.0
20
500.0
30
0.0
40
12.0
62
1
0
TEXT
8
FIRE_SAFETY
10
1300.0
20
525.0
30
0.0
40
4.0
1
ОТ
62
1
0

; ==================== ПОЖАРНЫЕ ИЗВЕЩАТЕЛИ ====================
0
CIRCLE
8
FIRE_SAFETY
10
500.0
20
320.0
30
0.0
40
8.0
62
1
0
0
CIRCLE
8
FIRE_SAFETY
10
800.0
20
320.0
30
0.0
40
8.0
62
1
0
0
CIRCLE
8
FIRE_SAFETY
10
500.0
20
620.0
30
0.0
40
8.0
62
1
0
0
CIRCLE
8
FIRE_SAFETY
10
800.0
20
620.0
30
0.0
40
8.0
62
1
0

; ==================== РАЗМЕРНЫЕ ЛИНИИ ====================
0
LINE
8
DIMENSIONS
10
100.0
20
1130.0
30
0.0
11
1500.0
21
1130.0
31
0.0
0
TEXT
8
DIMENSIONS
10
800.0
20
1150.0
30
0.0
40
6.0
1
28.0 м
0

0
LINE
8
DIMENSIONS
10
50.0
20
100.0
30
0.0
11
50.0
21
1100.0
31
0.0
0
TEXT
8
DIMENSIONS
10
30.0
20
600.0
30
0.0
40
6.0
1
20.0 м
0

0
ENDSEC
0
SECTION
2
TABLES

; ==================== СЛОИ ====================
0
LAYER
2
WALLS
70
0
62
7
6
CONTINUOUS
0
LAYER
2
COLUMNS
70
0
62
8
6
CONTINUOUS
0
LAYER
2
TABLES
70
0
62
10
6
CONTINUOUS
0
LAYER
2
TABLES_VIP
70
0
62
30
6
CONTINUOUS
0
LAYER
2
SOFAS
70
0
62
6
6
CONTINUOUS
0
LAYER
2
BAR
70
0
62
30
6
CONTINUOUS
0
LAYER
2
STAGE
70
0
62
6
6
CONTINUOUS
0
LAYER
2
KITCHEN
70
0
62
1
6
CONTINUOUS
0
LAYER
2
WC
70
0
62
1
6
CONTINUOUS
0
LAYER
2
CLOAKROOM
70
0
62
4
6
CONTINUOUS
0
LAYER
2
DANCEFLOOR
70
0
62
5
6
CONTINUOUS
0
LAYER
2
ENTRANCES
70
0
62
10
6
CONTINUOUS
0
LAYER
2
EVACUATION
70
0
62
3
6
CONTINUOUS
0
LAYER
2
FIRE_SAFETY
70
0
62
1
6
CONTINUOUS
0
LAYER
2
DIMENSIONS
70
0
62
7
6
CONTINUOUS
0
ENDSEC
0
EOF
